<svg xmlns="http://www.w3.org/2000/svg" xmlns:xlink="http://www.w3.org/1999/xlink" width="500" zoomAndPan="magnify" viewBox="0 0 375 374.999991" height="500" preserveAspectRatio="xMidYMid meet" version="1.0"><defs><g/><clipPath id="2f56351d16"><path d="M 19 132 L 68 132 L 68 193 L 19 193 Z M 19 132 " clip-rule="nonzero"/></clipPath><clipPath id="4d825764a9"><path d="M 14.472656 184.421875 L 36.964844 124.769531 L 76.261719 139.589844 L 53.769531 199.238281 Z M 14.472656 184.421875 " clip-rule="nonzero"/></clipPath><clipPath id="c79ed49fe8"><path d="M 14.472656 184.421875 L 36.964844 124.769531 L 76.261719 139.589844 L 53.769531 199.238281 Z M 14.472656 184.421875 " clip-rule="nonzero"/></clipPath><clipPath id="c92fa34e76"><path d="M 20 133 L 66 133 L 66 191 L 20 191 Z M 20 133 " clip-rule="nonzero"/></clipPath><clipPath id="d61d8e7c9f"><path d="M 14.472656 184.421875 L 36.964844 124.769531 L 76.261719 139.589844 L 53.769531 199.238281 Z M 14.472656 184.421875 " clip-rule="nonzero"/></clipPath><clipPath id="ff4652f47c"><path d="M 14.472656 184.421875 L 36.964844 124.769531 L 76.261719 139.589844 L 53.769531 199.238281 Z M 14.472656 184.421875 " clip-rule="nonzero"/></clipPath><clipPath id="3ae729ea35"><path d="M 26 180 L 37 180 L 37 186 L 26 186 Z M 26 180 " clip-rule="nonzero"/></clipPath><clipPath id="9cad89a3e7"><path d="M 14.472656 184.421875 L 36.964844 124.769531 L 76.261719 139.589844 L 53.769531 199.238281 Z M 14.472656 184.421875 " clip-rule="nonzero"/></clipPath><clipPath id="f449a09a89"><path d="M 14.472656 184.421875 L 36.964844 124.769531 L 76.261719 139.589844 L 53.769531 199.238281 Z M 14.472656 184.421875 " clip-rule="nonzero"/></clipPath><clipPath id="2ba1681655"><path d="M 36 149 L 45 149 L 45 163 L 36 163 Z M 36 149 " clip-rule="nonzero"/></clipPath><clipPath id="489efa6448"><path d="M 14.472656 184.421875 L 36.964844 124.769531 L 76.261719 139.589844 L 53.769531 199.238281 Z M 14.472656 184.421875 " clip-rule="nonzero"/></clipPath><clipPath id="7a87cd2995"><path d="M 14.472656 184.421875 L 36.964844 124.769531 L 76.261719 139.589844 L 53.769531 199.238281 Z M 14.472656 184.421875 " clip-rule="nonzero"/></clipPath><clipPath id="52a6d2a5ea"><path d="M 39 143 L 66 143 L 66 174 L 39 174 Z M 39 143 " clip-rule="nonzero"/></clipPath><clipPath id="85b7478dcc"><path d="M 14.472656 184.421875 L 36.964844 124.769531 L 76.261719 139.589844 L 53.769531 199.238281 Z M 14.472656 184.421875 " clip-rule="nonzero"/></clipPath><clipPath id="04590e1b10"><path d="M 14.472656 184.421875 L 36.964844 124.769531 L 76.261719 139.589844 L 53.769531 199.238281 Z M 14.472656 184.421875 " clip-rule="nonzero"/></clipPath><clipPath id="8d8220ef6b"><path d="M 30 157 L 42 157 L 42 167 L 30 167 Z M 30 157 " clip-rule="nonzero"/></clipPath><clipPath id="0e9ed1a3f2"><path d="M 14.472656 184.421875 L 36.964844 124.769531 L 76.261719 139.589844 L 53.769531 199.238281 Z M 14.472656 184.421875 " clip-rule="nonzero"/></clipPath><clipPath id="706da10a58"><path d="M 14.472656 184.421875 L 36.964844 124.769531 L 76.261719 139.589844 L 53.769531 199.238281 Z M 14.472656 184.421875 " clip-rule="nonzero"/></clipPath><clipPath id="9a01290f4f"><path d="M 56 155 L 61 155 L 61 160 L 56 160 Z M 56 155 " clip-rule="nonzero"/></clipPath><clipPath id="10c9807e74"><path d="M 14.472656 184.421875 L 36.964844 124.769531 L 76.261719 139.589844 L 53.769531 199.238281 Z M 14.472656 184.421875 " clip-rule="nonzero"/></clipPath><clipPath id="3cba7ee93e"><path d="M 14.472656 184.421875 L 36.964844 124.769531 L 76.261719 139.589844 L 53.769531 199.238281 Z M 14.472656 184.421875 " clip-rule="nonzero"/></clipPath><clipPath id="9d412ea591"><path d="M 44 146 L 60 146 L 60 166 L 44 166 Z M 44 146 " clip-rule="nonzero"/></clipPath><clipPath id="1157f7d460"><path d="M 14.472656 184.421875 L 36.964844 124.769531 L 76.261719 139.589844 L 53.769531 199.238281 Z M 14.472656 184.421875 " clip-rule="nonzero"/></clipPath><clipPath id="b44ad1dbd7"><path d="M 14.472656 184.421875 L 36.964844 124.769531 L 76.261719 139.589844 L 53.769531 199.238281 Z M 14.472656 184.421875 " clip-rule="nonzero"/></clipPath><clipPath id="a540b7aa99"><path d="M 39 162 L 50 162 L 50 175 L 39 175 Z M 39 162 " clip-rule="nonzero"/></clipPath><clipPath id="5582a7d6e5"><path d="M 14.472656 184.421875 L 36.964844 124.769531 L 76.261719 139.589844 L 53.769531 199.238281 Z M 14.472656 184.421875 " clip-rule="nonzero"/></clipPath><clipPath id="c8b597b980"><path d="M 14.472656 184.421875 L 36.964844 124.769531 L 76.261719 139.589844 L 53.769531 199.238281 Z M 14.472656 184.421875 " clip-rule="nonzero"/></clipPath><clipPath id="0375d3ad61"><path d="M 32 180 L 38 180 L 38 184 L 32 184 Z M 32 180 " clip-rule="nonzero"/></clipPath><clipPath id="7274cc64c1"><path d="M 14.472656 184.421875 L 36.964844 124.769531 L 76.261719 139.589844 L 53.769531 199.238281 Z M 14.472656 184.421875 " clip-rule="nonzero"/></clipPath><clipPath id="37bdfc4ab4"><path d="M 14.472656 184.421875 L 36.964844 124.769531 L 76.261719 139.589844 L 53.769531 199.238281 Z M 14.472656 184.421875 " clip-rule="nonzero"/></clipPath></defs><rect x="-37.5" width="450" fill="#ffffff" y="-37.499999" height="449.999989" fill-opacity="1"/><rect x="-37.5" width="450" fill="#ffffff" y="-37.499999" height="449.999989" fill-opacity="1"/><path fill="#e45151" d="M 320.964844 219.445312 L 315.59375 236.359375 C 301.355469 269.625 277.363281 293.210938 243.605469 307.117188 C 209.65625 320.957031 173.519531 321.214844 135.191406 307.886719 C 99.03125 293.425781 72.90625 270.1875 56.816406 238.171875 C 51.679688 227.839844 47.996094 217.039062 45.765625 205.769531 L 43.640625 188.707031 C 42.988281 177.160156 44.050781 165.527344 46.816406 153.808594 C 56.402344 118.097656 76.945312 91.398438 108.445312 73.707031 C 139.945312 56.015625 175.21875 51.363281 214.269531 59.753906 C 252.882812 69.957031 282.226562 90.078125 302.296875 120.117188 C 322.367188 150.160156 328.589844 183.265625 320.964844 219.445312 " fill-opacity="1" fill-rule="nonzero"/><g fill="#ffffff" fill-opacity="1"><g transform="translate(39.874293, 236.373698)"><g><path d="M 46 1.21875 C 37.832031 1.21875 30.523438 -0.410156 24.078125 -3.671875 C 17.640625 -6.941406 12.628906 -11.476562 9.046875 -17.28125 C 5.460938 -23.09375 3.671875 -29.671875 3.671875 -37.015625 C 3.671875 -44.367188 5.460938 -50.925781 9.046875 -56.6875 C 12.628906 -62.445312 17.640625 -66.9375 24.078125 -70.15625 C 30.523438 -73.375 37.832031 -74.984375 46 -74.984375 C 54.34375 -74.984375 61.550781 -73.191406 67.625 -69.609375 C 73.707031 -66.023438 78.019531 -61.054688 80.5625 -54.703125 L 60.5625 -44.5 C 57.207031 -51.125 52.304688 -54.4375 45.859375 -54.4375 C 41.234375 -54.4375 37.398438 -52.894531 34.359375 -49.8125 C 31.316406 -46.726562 29.796875 -42.460938 29.796875 -37.015625 C 29.796875 -31.484375 31.316406 -27.148438 34.359375 -24.015625 C 37.398438 -20.890625 41.234375 -19.328125 45.859375 -19.328125 C 52.304688 -19.328125 57.207031 -22.640625 60.5625 -29.265625 L 80.5625 -19.046875 C 78.019531 -12.703125 73.707031 -7.738281 67.625 -4.15625 C 61.550781 -0.570312 54.34375 1.21875 46 1.21875 Z M 46 1.21875 "/></g></g></g><g fill="#ffffff" fill-opacity="1"><g transform="translate(111.586125, 236.373698)"><g><path d="M 56.34375 -74.984375 C 65.507812 -74.984375 72.878906 -72.257812 78.453125 -66.8125 C 84.035156 -61.375 86.828125 -53.164062 86.828125 -42.1875 L 86.828125 0 L 60.96875 0 L 60.96875 -37.96875 C 60.96875 -48.039062 56.929688 -53.078125 48.859375 -53.078125 C 44.410156 -53.078125 40.847656 -51.625 38.171875 -48.71875 C 35.492188 -45.8125 34.15625 -41.457031 34.15625 -35.65625 L 34.15625 0 L 8.296875 0 L 8.296875 -100.984375 L 34.15625 -100.984375 L 34.15625 -66.953125 C 36.96875 -69.585938 40.28125 -71.582031 44.09375 -72.9375 C 47.90625 -74.300781 51.988281 -74.984375 56.34375 -74.984375 Z M 56.34375 -74.984375 "/></g></g></g><g fill="#ffffff" fill-opacity="1"><g transform="translate(195.953347, 236.373698)"><g><path d="M 83.703125 -36.75 C 83.703125 -36.5625 83.566406 -34.425781 83.296875 -30.34375 L 29.671875 -30.34375 C 30.753906 -26.539062 32.859375 -23.617188 35.984375 -21.578125 C 39.117188 -19.535156 43.046875 -18.515625 47.765625 -18.515625 C 51.304688 -18.515625 54.367188 -19.007812 56.953125 -20 C 59.535156 -21 62.144531 -22.632812 64.78125 -24.90625 L 78.390625 -10.75 C 71.222656 -2.769531 60.742188 1.21875 46.953125 1.21875 C 38.335938 1.21875 30.757812 -0.410156 24.21875 -3.671875 C 17.6875 -6.941406 12.628906 -11.476562 9.046875 -17.28125 C 5.460938 -23.09375 3.671875 -29.671875 3.671875 -37.015625 C 3.671875 -44.273438 5.414062 -50.785156 8.90625 -56.546875 C 12.40625 -62.304688 17.238281 -66.816406 23.40625 -70.078125 C 29.570312 -73.347656 36.515625 -74.984375 44.234375 -74.984375 C 51.578125 -74.984375 58.242188 -73.460938 64.234375 -70.421875 C 70.222656 -67.390625 74.960938 -62.988281 78.453125 -57.21875 C 81.953125 -51.457031 83.703125 -44.632812 83.703125 -36.75 Z M 44.359375 -56.609375 C 40.367188 -56.609375 37.035156 -55.472656 34.359375 -53.203125 C 31.679688 -50.941406 29.984375 -47.859375 29.265625 -43.953125 L 59.46875 -43.953125 C 58.75 -47.859375 57.050781 -50.941406 54.375 -53.203125 C 51.695312 -55.472656 48.359375 -56.609375 44.359375 -56.609375 Z M 44.359375 -56.609375 "/></g></g></g><g fill="#ffffff" fill-opacity="1"><g transform="translate(272.972277, 236.373698)"><g><path d="M 36.46875 -71.046875 L 54.03125 -71.046875 L 54.03125 -51.71875 L 37.15625 -51.71875 L 37.15625 0 L 11.296875 0 L 11.296875 -51.71875 L 0.546875 -51.71875 L 0.546875 -71.046875 L 11.296875 -71.046875 L 11.296875 -72.953125 C 11.296875 -81.929688 13.992188 -89.050781 19.390625 -94.3125 C 24.785156 -99.570312 32.335938 -102.203125 42.046875 -102.203125 C 45.316406 -102.203125 48.492188 -101.882812 51.578125 -101.25 C 54.660156 -100.613281 57.203125 -99.660156 59.203125 -98.390625 L 52.796875 -80.15625 C 50.265625 -81.613281 47.679688 -82.34375 45.046875 -82.34375 C 42.328125 -82.34375 40.21875 -81.523438 38.71875 -79.890625 C 37.21875 -78.253906 36.46875 -75.847656 36.46875 -72.671875 Z M 36.46875 -71.046875 "/></g></g></g><g clip-path="url(#2f56351d16)"><g clip-path="url(#4d825764a9)"><g clip-path="url(#c79ed49fe8)"><path fill="#1b2123" d="M 66.34375 164.394531 C 60.425781 168.640625 54.699219 174.5625 50.226562 181.058594 C 48 184.292969 46.136719 187.585938 44.6875 190.847656 L 43.949219 192.515625 L 37.144531 183.566406 C 35.480469 185.355469 31.683594 188.675781 26.722656 188.3125 C 24.316406 188.132812 22.558594 187.347656 21.347656 185.910156 C 19.761719 184.027344 16.851562 178.167969 21.589844 171.882812 C 24.976562 166.964844 31.585938 164.457031 32.96875 163.972656 C 33.363281 163.574219 33.710938 163.15625 34.023438 162.703125 C 35.277344 160.882812 35.769531 158.714844 36.339844 156.207031 C 37.152344 152.625 38.167969 148.164062 41.8125 142.863281 C 42.261719 142.210938 42.75 141.550781 43.257812 140.902344 C 47.710938 135.222656 51.722656 132.605469 55.519531 132.910156 C 57.199219 133.042969 61.910156 134.847656 64.585938 139.734375 C 66.066406 142.304688 65.871094 145.449219 64.992188 148.757812 C 64.574219 150.320312 63.648438 152.808594 61.597656 155.785156 C 61.039062 156.601562 60.519531 157.273438 60.121094 157.757812 L 67.503906 163.558594 Z M 66.34375 164.394531 " fill-opacity="1" fill-rule="nonzero"/></g></g></g><g clip-path="url(#c92fa34e76)"><g clip-path="url(#d61d8e7c9f)"><g clip-path="url(#ff4652f47c)"><path fill="#ffffff" d="M 63.148438 140.421875 C 64.757812 143.214844 64.625 146.25 63.792969 148.996094 C 62.300781 153.914062 58.558594 157.902344 58.558594 157.902344 L 65.703125 163.511719 C 63.410156 165.15625 61.15625 167.042969 58.988281 169.109375 C 52.667969 175.136719 47.109375 182.710938 43.695312 190.402344 L 37.179688 181.839844 C 37.179688 181.839844 32.878906 187.683594 26.789062 187.234375 C 22.917969 186.949219 19.921875 183.664062 20.386719 177.433594 C 21.269531 169.101562 33.5625 164.917969 33.5625 164.917969 C 38.957031 159.730469 35.511719 152.554688 44.117188 141.574219 C 52.695312 130.632812 58.65625 132.625 63.148438 140.421875 Z M 63.148438 140.421875 " fill-opacity="1" fill-rule="nonzero"/></g></g></g><g clip-path="url(#3ae729ea35)"><g clip-path="url(#9cad89a3e7)"><g clip-path="url(#f449a09a89)"><path fill="#ffffff" d="M 36.570312 182.160156 C 36.570312 182.160156 32.785156 185.308594 30.191406 185.640625 C 27.535156 185.976562 26.242188 185.035156 26.730469 184.875 C 27.222656 184.710938 29.867188 184.910156 30.714844 183.496094 C 31.5625 182.085938 28.484375 181.960938 29.753906 181.214844 C 31.027344 180.46875 33.101562 180.398438 34.507812 180.742188 C 35.917969 181.089844 36.570312 182.160156 36.570312 182.160156 Z M 36.570312 182.160156 " fill-opacity="1" fill-rule="nonzero"/></g></g></g><g clip-path="url(#2ba1681655)"><g clip-path="url(#489efa6448)"><g clip-path="url(#7a87cd2995)"><path fill="#ffffff" d="M 36.683594 162.167969 C 36.683594 162.167969 38.996094 159.609375 39.992188 155.464844 C 40.992188 151.324219 42.1875 148.625 43.175781 149.304688 C 44.164062 149.984375 44.75 152.214844 42.636719 156.242188 C 40.523438 160.269531 36.683594 162.167969 36.683594 162.167969 Z M 36.683594 162.167969 " fill-opacity="1" fill-rule="nonzero"/></g></g></g><g clip-path="url(#52a6d2a5ea)"><g clip-path="url(#85b7478dcc)"><g clip-path="url(#04590e1b10)"><path fill="#ffffff" d="M 63.464844 145.160156 C 63.472656 145.246094 63.699219 147.511719 63.792969 148.996094 C 62.300781 153.914062 58.558594 157.902344 58.558594 157.902344 L 65.703125 163.515625 C 63.410156 165.15625 61.15625 167.042969 58.988281 169.109375 C 59.199219 168.171875 59.054688 167.085938 58.148438 165.929688 C 55.449219 162.5 53.109375 161.238281 53.109375 161.238281 C 53.109375 161.238281 52.085938 166.867188 49.46875 169.636719 C 46.871094 172.382812 39.976562 173.210938 39.867188 173.226562 C 39.917969 173.179688 42.65625 170.726562 43.757812 168.867188 C 44.867188 166.996094 44.867188 166.996094 44.867188 166.996094 C 42.246094 166.632812 39.796875 166.207031 40.832031 164.570312 C 40.832031 164.570312 48.667969 163.808594 52.917969 154.78125 C 57.171875 145.75 54.234375 143.027344 57.277344 143.007812 C 60.320312 142.992188 60.378906 150.417969 61.808594 149.117188 C 63.214844 147.839844 63.457031 145.25 63.464844 145.160156 Z M 63.464844 145.160156 " fill-opacity="1" fill-rule="nonzero"/></g></g></g><g clip-path="url(#8d8220ef6b)"><g clip-path="url(#0e9ed1a3f2)"><g clip-path="url(#706da10a58)"><path fill="#1b2123" d="M 30.085938 166.292969 C 30.085938 166.292969 34.273438 165.144531 37.292969 163.121094 C 40.3125 161.101562 41.203125 157.96875 41.203125 157.96875 C 41.203125 157.96875 38.753906 160.738281 36.683594 162.167969 C 34.617188 163.597656 34.121094 163.792969 34.121094 163.792969 Z M 30.085938 166.292969 " fill-opacity="1" fill-rule="nonzero"/></g></g></g><g clip-path="url(#9a01290f4f)"><g clip-path="url(#10c9807e74)"><g clip-path="url(#3cba7ee93e)"><path fill="#1b2123" d="M 56.128906 155.316406 C 56.371094 155.976562 58.539062 157.847656 60.222656 159.199219 L 60.121094 157.757812 C 58.875 156.828125 57.824219 155.96875 56.9375 155.171875 Z M 56.128906 155.316406 " fill-opacity="1" fill-rule="nonzero"/></g></g></g><g clip-path="url(#9d412ea591)"><g clip-path="url(#1157f7d460)"><g clip-path="url(#b44ad1dbd7)"><path fill="#1b2123" d="M 58.433594 146.367188 C 58.433594 146.367188 59.621094 150.710938 54.707031 156.988281 C 49.792969 163.261719 44.835938 165.257812 44.835938 165.257812 C 44.835938 165.257812 50.222656 164.183594 55.121094 158.726562 C 58.121094 155.230469 57.324219 156.148438 58.527344 153.320312 C 59.734375 150.492188 58.433594 146.367188 58.433594 146.367188 Z M 58.433594 146.367188 " fill-opacity="1" fill-rule="nonzero"/></g></g></g><g clip-path="url(#a540b7aa99)"><g clip-path="url(#5582a7d6e5)"><g clip-path="url(#c8b597b980)"><path fill="#1b2123" d="M 47.914062 163.847656 C 47.496094 167.648438 44.089844 172.230469 39.726562 174.230469 C 39.726562 174.230469 41.671875 174.402344 45.183594 171.441406 C 48.695312 168.484375 49.75 162.667969 49.75 162.667969 Z M 47.914062 163.847656 " fill-opacity="1" fill-rule="nonzero"/></g></g></g><g clip-path="url(#0375d3ad61)"><g clip-path="url(#7274cc64c1)"><g clip-path="url(#37bdfc4ab4)"><path fill="#1b2123" d="M 37.929688 183.023438 C 37.808594 182.726562 37.371094 181.785156 36.5625 181.226562 C 35.75 180.667969 32.015625 181.203125 32.015625 181.203125 C 32.015625 181.203125 34.632812 181.503906 35.542969 181.917969 C 36.453125 182.328125 37.144531 183.566406 37.144531 183.566406 Z M 37.929688 183.023438 " fill-opacity="1" fill-rule="nonzero"/></g></g></g></svg>