<svg xmlns="http://www.w3.org/2000/svg" xmlns:xlink="http://www.w3.org/1999/xlink" width="500" zoomAndPan="magnify" viewBox="0 0 375 374.999991" height="500" preserveAspectRatio="xMidYMid meet" version="1.0"><defs><g/><clipPath id="7d52f5815c"><path d="M 60 64 L 110 64 L 110 125 L 60 125 Z M 60 64 " clip-rule="nonzero"/></clipPath><clipPath id="e00f358248"><path d="M 56.136719 116.089844 L 78.628906 56.4375 L 117.929688 71.253906 L 95.4375 130.90625 Z M 56.136719 116.089844 " clip-rule="nonzero"/></clipPath><clipPath id="98fc0ac8f5"><path d="M 56.136719 116.089844 L 78.628906 56.4375 L 117.929688 71.253906 L 95.4375 130.90625 Z M 56.136719 116.089844 " clip-rule="nonzero"/></clipPath><clipPath id="c6864d3652"><path d="M 62 65 L 108 65 L 108 123 L 62 123 Z M 62 65 " clip-rule="nonzero"/></clipPath><clipPath id="c27bfc6d74"><path d="M 56.136719 116.089844 L 78.628906 56.4375 L 117.929688 71.253906 L 95.4375 130.90625 Z M 56.136719 116.089844 " clip-rule="nonzero"/></clipPath><clipPath id="c3f5e8b2c4"><path d="M 56.136719 116.089844 L 78.628906 56.4375 L 117.929688 71.253906 L 95.4375 130.90625 Z M 56.136719 116.089844 " clip-rule="nonzero"/></clipPath><clipPath id="76b7aa6f76"><path d="M 68 112 L 79 112 L 79 118 L 68 118 Z M 68 112 " clip-rule="nonzero"/></clipPath><clipPath id="df96fe9516"><path d="M 56.136719 116.089844 L 78.628906 56.4375 L 117.929688 71.253906 L 95.4375 130.90625 Z M 56.136719 116.089844 " clip-rule="nonzero"/></clipPath><clipPath id="efb5cbd91b"><path d="M 56.136719 116.089844 L 78.628906 56.4375 L 117.929688 71.253906 L 95.4375 130.90625 Z M 56.136719 116.089844 " clip-rule="nonzero"/></clipPath><clipPath id="356c57cc55"><path d="M 78 80 L 86 80 L 86 94 L 78 94 Z M 78 80 " clip-rule="nonzero"/></clipPath><clipPath id="05822b174e"><path d="M 56.136719 116.089844 L 78.628906 56.4375 L 117.929688 71.253906 L 95.4375 130.90625 Z M 56.136719 116.089844 " clip-rule="nonzero"/></clipPath><clipPath id="14b3b70f0d"><path d="M 56.136719 116.089844 L 78.628906 56.4375 L 117.929688 71.253906 L 95.4375 130.90625 Z M 56.136719 116.089844 " clip-rule="nonzero"/></clipPath><clipPath id="84e20e9f51"><path d="M 81 74 L 108 74 L 108 105 L 81 105 Z M 81 74 " clip-rule="nonzero"/></clipPath><clipPath id="4cee2d5a2f"><path d="M 56.136719 116.089844 L 78.628906 56.4375 L 117.929688 71.253906 L 95.4375 130.90625 Z M 56.136719 116.089844 " clip-rule="nonzero"/></clipPath><clipPath id="8214918057"><path d="M 56.136719 116.089844 L 78.628906 56.4375 L 117.929688 71.253906 L 95.4375 130.90625 Z M 56.136719 116.089844 " clip-rule="nonzero"/></clipPath><clipPath id="e1d56d98b4"><path d="M 71 89 L 83 89 L 83 98 L 71 98 Z M 71 89 " clip-rule="nonzero"/></clipPath><clipPath id="a583793d97"><path d="M 56.136719 116.089844 L 78.628906 56.4375 L 117.929688 71.253906 L 95.4375 130.90625 Z M 56.136719 116.089844 " clip-rule="nonzero"/></clipPath><clipPath id="a3d4a783b4"><path d="M 56.136719 116.089844 L 78.628906 56.4375 L 117.929688 71.253906 L 95.4375 130.90625 Z M 56.136719 116.089844 " clip-rule="nonzero"/></clipPath><clipPath id="42a99c717b"><path d="M 97 86 L 102 86 L 102 91 L 97 91 Z M 97 86 " clip-rule="nonzero"/></clipPath><clipPath id="6472c0d83d"><path d="M 56.136719 116.089844 L 78.628906 56.4375 L 117.929688 71.253906 L 95.4375 130.90625 Z M 56.136719 116.089844 " clip-rule="nonzero"/></clipPath><clipPath id="bcf779d8b4"><path d="M 56.136719 116.089844 L 78.628906 56.4375 L 117.929688 71.253906 L 95.4375 130.90625 Z M 56.136719 116.089844 " clip-rule="nonzero"/></clipPath><clipPath id="b05ce0ca30"><path d="M 86 78 L 101 78 L 101 97 L 86 97 Z M 86 78 " clip-rule="nonzero"/></clipPath><clipPath id="af3fac263b"><path d="M 56.136719 116.089844 L 78.628906 56.4375 L 117.929688 71.253906 L 95.4375 130.90625 Z M 56.136719 116.089844 " clip-rule="nonzero"/></clipPath><clipPath id="465801e032"><path d="M 56.136719 116.089844 L 78.628906 56.4375 L 117.929688 71.253906 L 95.4375 130.90625 Z M 56.136719 116.089844 " clip-rule="nonzero"/></clipPath><clipPath id="8e6a792f58"><path d="M 81 94 L 92 94 L 92 106 L 81 106 Z M 81 94 " clip-rule="nonzero"/></clipPath><clipPath id="5fa4d6fff1"><path d="M 56.136719 116.089844 L 78.628906 56.4375 L 117.929688 71.253906 L 95.4375 130.90625 Z M 56.136719 116.089844 " clip-rule="nonzero"/></clipPath><clipPath id="cd9df35150"><path d="M 56.136719 116.089844 L 78.628906 56.4375 L 117.929688 71.253906 L 95.4375 130.90625 Z M 56.136719 116.089844 " clip-rule="nonzero"/></clipPath><clipPath id="ee3b43a71f"><path d="M 73 112 L 80 112 L 80 116 L 73 116 Z M 73 112 " clip-rule="nonzero"/></clipPath><clipPath id="20d2a669d1"><path d="M 56.136719 116.089844 L 78.628906 56.4375 L 117.929688 71.253906 L 95.4375 130.90625 Z M 56.136719 116.089844 " clip-rule="nonzero"/></clipPath><clipPath id="d78c05aae5"><path d="M 56.136719 116.089844 L 78.628906 56.4375 L 117.929688 71.253906 L 95.4375 130.90625 Z M 56.136719 116.089844 " clip-rule="nonzero"/></clipPath></defs><rect x="-37.5" width="450" fill="#ffffff" y="-37.499999" height="449.999989" fill-opacity="1"/><rect x="-37.5" width="450" fill="#ffffff" y="-37.499999" height="449.999989" fill-opacity="1"/><path fill="#e45151" d="M 320.964844 219.445312 L 315.59375 236.359375 C 301.355469 269.625 277.363281 293.210938 243.605469 307.117188 C 209.65625 320.957031 173.519531 321.214844 135.191406 307.886719 C 99.03125 293.425781 72.90625 270.1875 56.816406 238.171875 C 51.679688 227.839844 47.996094 217.039062 45.765625 205.769531 L 43.640625 188.707031 C 42.988281 177.160156 44.050781 165.527344 46.816406 153.808594 C 56.402344 118.097656 76.945312 91.398438 108.445312 73.707031 C 139.945312 56.015625 175.21875 51.363281 214.269531 59.753906 C 252.882812 69.957031 282.226562 90.078125 302.296875 120.117188 C 322.367188 150.160156 328.589844 183.265625 320.964844 219.445312 " fill-opacity="1" fill-rule="nonzero"/><g fill="#ffffff" fill-opacity="1"><g transform="translate(84.088548, 158.18313)"><g><path d="M 26.8125 1.1875 C 22 1.1875 17.328125 0.59375 12.796875 -0.59375 C 8.273438 -1.78125 4.601562 -3.363281 1.78125 -5.34375 L 7.296875 -17.734375 C 9.953125 -15.972656 13.03125 -14.554688 16.53125 -13.484375 C 20.039062 -12.410156 23.492188 -11.875 26.890625 -11.875 C 33.335938 -11.875 36.5625 -13.488281 36.5625 -16.71875 C 36.5625 -18.40625 35.640625 -19.660156 33.796875 -20.484375 C 31.960938 -21.304688 29.007812 -22.171875 24.9375 -23.078125 C 20.46875 -24.035156 16.734375 -25.066406 13.734375 -26.171875 C 10.742188 -27.273438 8.171875 -29.039062 6.015625 -31.46875 C 3.867188 -33.90625 2.796875 -37.1875 2.796875 -41.3125 C 2.796875 -44.925781 3.785156 -48.191406 5.765625 -51.109375 C 7.742188 -54.023438 10.695312 -56.328125 14.625 -58.015625 C 18.5625 -59.710938 23.382812 -60.5625 29.09375 -60.5625 C 33 -60.5625 36.84375 -60.125 40.625 -59.25 C 44.414062 -58.375 47.753906 -57.085938 50.640625 -55.390625 L 45.46875 -42.921875 C 39.8125 -45.972656 34.328125 -47.5 29.015625 -47.5 C 25.671875 -47.5 23.234375 -47.003906 21.703125 -46.015625 C 20.179688 -45.023438 19.421875 -43.738281 19.421875 -42.15625 C 19.421875 -40.570312 20.328125 -39.382812 22.140625 -38.59375 C 23.953125 -37.800781 26.863281 -36.984375 30.875 -36.140625 C 35.394531 -35.171875 39.140625 -34.132812 42.109375 -33.03125 C 45.085938 -31.9375 47.664062 -30.1875 49.84375 -27.78125 C 52.019531 -25.375 53.109375 -22.109375 53.109375 -17.984375 C 53.109375 -14.421875 52.117188 -11.195312 50.140625 -8.3125 C 48.160156 -5.425781 45.1875 -3.117188 41.21875 -1.390625 C 37.257812 0.328125 32.457031 1.1875 26.8125 1.1875 Z M 26.8125 1.1875 "/></g></g></g><g fill="#ffffff" fill-opacity="1"><g transform="translate(132.519732, 158.18313)"><g><path d="M 35.125 -46.734375 C 40.832031 -46.734375 45.425781 -45.035156 48.90625 -41.640625 C 52.382812 -38.253906 54.125 -33.140625 54.125 -26.296875 L 54.125 0 L 38 0 L 38 -23.671875 C 38 -29.941406 35.484375 -33.078125 30.453125 -33.078125 C 27.679688 -33.078125 25.460938 -32.171875 23.796875 -30.359375 C 22.128906 -28.554688 21.296875 -25.84375 21.296875 -22.21875 L 21.296875 0 L 5.171875 0 L 5.171875 -45.984375 L 20.53125 -45.984375 L 20.53125 -40.96875 C 22.34375 -42.832031 24.488281 -44.257812 26.96875 -45.25 C 29.457031 -46.238281 32.175781 -46.734375 35.125 -46.734375 Z M 35.125 -46.734375 "/></g></g></g><g fill="#ffffff" fill-opacity="1"><g transform="translate(185.107119, 158.18313)"><g><path d="M 24.765625 -46.734375 C 32.398438 -46.734375 38.222656 -44.992188 42.234375 -41.515625 C 46.253906 -38.046875 48.265625 -32.71875 48.265625 -25.53125 L 48.265625 0 L 33.25 0 L 33.25 -5.9375 C 30.9375 -1.46875 26.414062 0.765625 19.6875 0.765625 C 16.125 0.765625 13.039062 0.144531 10.4375 -1.09375 C 7.832031 -2.34375 5.863281 -4.023438 4.53125 -6.140625 C 3.207031 -8.265625 2.546875 -10.6875 2.546875 -13.40625 C 2.546875 -17.757812 4.210938 -21.132812 7.546875 -23.53125 C 10.878906 -25.9375 16.023438 -27.140625 22.984375 -27.140625 L 32.15625 -27.140625 C 31.863281 -32.003906 28.609375 -34.4375 22.390625 -34.4375 C 20.191406 -34.4375 17.957031 -34.082031 15.6875 -33.375 C 13.425781 -32.664062 11.503906 -31.691406 9.921875 -30.453125 L 4.5 -41.390625 C 7.039062 -43.085938 10.132812 -44.398438 13.78125 -45.328125 C 17.425781 -46.265625 21.085938 -46.734375 24.765625 -46.734375 Z M 24.171875 -9.421875 C 26.035156 -9.421875 27.675781 -9.867188 29.09375 -10.765625 C 30.507812 -11.671875 31.53125 -13.003906 32.15625 -14.765625 L 32.15625 -18.75 L 25.1875 -18.75 C 20.5 -18.75 18.15625 -17.191406 18.15625 -14.078125 C 18.15625 -12.660156 18.691406 -11.53125 19.765625 -10.6875 C 20.835938 -9.84375 22.304688 -9.421875 24.171875 -9.421875 Z M 24.171875 -9.421875 "/></g></g></g><g fill="#ffffff" fill-opacity="1"><g transform="translate(231.926724, 158.18313)"><g><path d="M 34.09375 -46.734375 C 38.28125 -46.734375 42.082031 -45.757812 45.5 -43.8125 C 48.925781 -41.863281 51.644531 -39.09375 53.65625 -35.5 C 55.664062 -31.90625 56.671875 -27.734375 56.671875 -22.984375 C 56.671875 -18.234375 55.664062 -14.0625 53.65625 -10.46875 C 51.644531 -6.882812 48.925781 -4.113281 45.5 -2.15625 C 42.082031 -0.207031 38.28125 0.765625 34.09375 0.765625 C 28.726562 0.765625 24.460938 -0.847656 21.296875 -4.078125 L 21.296875 16.453125 L 5.171875 16.453125 L 5.171875 -45.984375 L 20.53125 -45.984375 L 20.53125 -41.390625 C 23.53125 -44.953125 28.050781 -46.734375 34.09375 -46.734375 Z M 30.703125 -12.046875 C 33.535156 -12.046875 35.851562 -13.019531 37.65625 -14.96875 C 39.46875 -16.925781 40.375 -19.597656 40.375 -22.984375 C 40.375 -26.378906 39.46875 -29.050781 37.65625 -31 C 35.851562 -32.957031 33.535156 -33.9375 30.703125 -33.9375 C 27.878906 -33.9375 25.5625 -32.957031 23.75 -31 C 21.9375 -29.050781 21.03125 -26.378906 21.03125 -22.984375 C 21.03125 -19.597656 21.9375 -16.925781 23.75 -14.96875 C 25.5625 -13.019531 27.878906 -12.046875 30.703125 -12.046875 Z M 30.703125 -12.046875 "/></g></g></g><g fill="#ffffff" fill-opacity="1"><g transform="translate(122.047769, 276.427784)"><g><path d="M 26.8125 1.1875 C 22 1.1875 17.328125 0.59375 12.796875 -0.59375 C 8.273438 -1.78125 4.601562 -3.363281 1.78125 -5.34375 L 7.296875 -17.734375 C 9.953125 -15.972656 13.03125 -14.554688 16.53125 -13.484375 C 20.039062 -12.410156 23.492188 -11.875 26.890625 -11.875 C 33.335938 -11.875 36.5625 -13.488281 36.5625 -16.71875 C 36.5625 -18.40625 35.640625 -19.660156 33.796875 -20.484375 C 31.960938 -21.304688 29.007812 -22.171875 24.9375 -23.078125 C 20.46875 -24.035156 16.734375 -25.066406 13.734375 -26.171875 C 10.742188 -27.273438 8.171875 -29.039062 6.015625 -31.46875 C 3.867188 -33.90625 2.796875 -37.1875 2.796875 -41.3125 C 2.796875 -44.925781 3.785156 -48.191406 5.765625 -51.109375 C 7.742188 -54.023438 10.695312 -56.328125 14.625 -58.015625 C 18.5625 -59.710938 23.382812 -60.5625 29.09375 -60.5625 C 33 -60.5625 36.84375 -60.125 40.625 -59.25 C 44.414062 -58.375 47.753906 -57.085938 50.640625 -55.390625 L 45.46875 -42.921875 C 39.8125 -45.972656 34.328125 -47.5 29.015625 -47.5 C 25.671875 -47.5 23.234375 -47.003906 21.703125 -46.015625 C 20.179688 -45.023438 19.421875 -43.738281 19.421875 -42.15625 C 19.421875 -40.570312 20.328125 -39.382812 22.140625 -38.59375 C 23.953125 -37.800781 26.863281 -36.984375 30.875 -36.140625 C 35.394531 -35.171875 39.140625 -34.132812 42.109375 -33.03125 C 45.085938 -31.9375 47.664062 -30.1875 49.84375 -27.78125 C 52.019531 -25.375 53.109375 -22.109375 53.109375 -17.984375 C 53.109375 -14.421875 52.117188 -11.195312 50.140625 -8.3125 C 48.160156 -5.425781 45.1875 -3.117188 41.21875 -1.390625 C 37.257812 0.328125 32.457031 1.1875 26.8125 1.1875 Z M 27.734375 5.265625 C 29.773438 5.265625 31.398438 5.785156 32.609375 6.828125 C 33.828125 7.867188 34.4375 9.238281 34.4375 10.9375 C 34.4375 12.914062 33.84375 14.953125 32.65625 17.046875 L 29.515625 22.734375 L 22.21875 22.734375 L 24.4375 16.03125 C 22.164062 15.1875 21.03125 13.488281 21.03125 10.9375 C 21.03125 9.238281 21.640625 7.867188 22.859375 6.828125 C 24.078125 5.785156 25.703125 5.265625 27.734375 5.265625 Z M 27.734375 5.265625 "/></g></g></g><g fill="#ffffff" fill-opacity="1"><g transform="translate(170.478954, 276.427784)"><g><path d="M 52.171875 -22.90625 C 52.171875 -22.789062 52.085938 -21.460938 51.921875 -18.921875 L 18.5 -18.921875 C 19.175781 -16.546875 20.488281 -14.71875 22.4375 -13.4375 C 24.382812 -12.164062 26.832031 -11.53125 29.78125 -11.53125 C 31.976562 -11.53125 33.882812 -11.84375 35.5 -12.46875 C 37.113281 -13.09375 38.738281 -14.113281 40.375 -15.53125 L 48.859375 -6.703125 C 44.390625 -1.722656 37.859375 0.765625 29.265625 0.765625 C 23.890625 0.765625 19.164062 -0.25 15.09375 -2.28125 C 11.019531 -4.320312 7.867188 -7.148438 5.640625 -10.765625 C 3.410156 -14.390625 2.296875 -18.492188 2.296875 -23.078125 C 2.296875 -27.597656 3.382812 -31.648438 5.5625 -35.234375 C 7.738281 -38.828125 10.75 -41.640625 14.59375 -43.671875 C 18.4375 -45.710938 22.757812 -46.734375 27.5625 -46.734375 C 32.144531 -46.734375 36.300781 -45.785156 40.03125 -43.890625 C 43.769531 -42.003906 46.726562 -39.265625 48.90625 -35.671875 C 51.082031 -32.078125 52.171875 -27.820312 52.171875 -22.90625 Z M 27.65625 -35.28125 C 25.164062 -35.28125 23.085938 -34.570312 21.421875 -33.15625 C 19.753906 -31.75 18.691406 -29.832031 18.234375 -27.40625 L 37.0625 -27.40625 C 36.613281 -29.832031 35.554688 -31.75 33.890625 -33.15625 C 32.222656 -34.570312 30.144531 -35.28125 27.65625 -35.28125 Z M 27.65625 -35.28125 "/></g></g></g><g fill="#ffffff" fill-opacity="1"><g transform="translate(218.486044, 276.427784)"><g><path d="M 22.734375 -44.28125 L 33.671875 -44.28125 L 33.671875 -32.234375 L 23.15625 -32.234375 L 23.15625 0 L 7.046875 0 L 7.046875 -32.234375 L 0.34375 -32.234375 L 0.34375 -44.28125 L 7.046875 -44.28125 L 7.046875 -45.46875 C 7.046875 -51.0625 8.726562 -55.5 12.09375 -58.78125 C 15.457031 -62.0625 20.164062 -63.703125 26.21875 -63.703125 C 28.25 -63.703125 30.222656 -63.503906 32.140625 -63.109375 C 34.066406 -62.710938 35.65625 -62.117188 36.90625 -61.328125 L 32.90625 -49.96875 C 31.320312 -50.875 29.710938 -51.328125 28.078125 -51.328125 C 26.378906 -51.328125 25.0625 -50.816406 24.125 -49.796875 C 23.195312 -48.773438 22.734375 -47.273438 22.734375 -45.296875 Z M 22.734375 -44.28125 "/></g></g></g><g clip-path="url(#7d52f5815c)"><g clip-path="url(#e00f358248)"><g clip-path="url(#98fc0ac8f5)"><path fill="#1b2123" d="M 108.011719 96.058594 C 102.089844 100.308594 96.367188 106.226562 91.894531 112.726562 C 89.667969 115.960938 87.804688 119.253906 86.355469 122.515625 L 85.613281 124.179688 L 78.808594 115.234375 C 77.144531 117.023438 73.351562 120.34375 68.390625 119.976562 C 65.984375 119.800781 64.226562 119.015625 63.015625 117.578125 C 61.429688 115.691406 58.519531 109.832031 63.257812 103.550781 C 66.640625 98.628906 73.25 96.121094 74.632812 95.640625 C 75.03125 95.238281 75.378906 94.824219 75.691406 94.371094 C 76.941406 92.550781 77.433594 90.382812 78.003906 87.875 C 78.820312 84.289062 79.832031 79.832031 83.480469 74.53125 C 83.929688 73.878906 84.414062 73.21875 84.925781 72.570312 C 89.378906 66.890625 93.386719 64.273438 97.183594 64.574219 C 98.867188 64.710938 103.578125 66.515625 106.253906 71.402344 C 107.734375 73.972656 107.539062 77.113281 106.65625 80.425781 C 106.242188 81.988281 105.316406 84.476562 103.265625 87.453125 C 102.703125 88.269531 102.183594 88.9375 101.785156 89.425781 L 109.167969 95.226562 Z M 108.011719 96.058594 " fill-opacity="1" fill-rule="nonzero"/></g></g></g><g clip-path="url(#c6864d3652)"><g clip-path="url(#c27bfc6d74)"><g clip-path="url(#c3f5e8b2c4)"><path fill="#ffffff" d="M 104.816406 72.089844 C 106.425781 74.882812 106.292969 77.917969 105.460938 80.660156 C 103.96875 85.582031 100.226562 89.566406 100.226562 89.566406 L 107.367188 95.179688 C 105.078125 96.824219 102.820312 98.707031 100.65625 100.777344 C 94.335938 106.800781 88.777344 114.378906 85.359375 122.066406 L 78.847656 113.507812 C 78.847656 113.507812 74.546875 119.351562 68.453125 118.902344 C 64.585938 118.617188 61.585938 115.332031 62.050781 109.097656 C 62.9375 100.769531 75.226562 96.585938 75.226562 96.585938 C 80.625 91.398438 77.179688 84.21875 85.785156 73.242188 C 94.359375 62.296875 100.320312 64.289062 104.816406 72.089844 Z M 104.816406 72.089844 " fill-opacity="1" fill-rule="nonzero"/></g></g></g><g clip-path="url(#76b7aa6f76)"><g clip-path="url(#df96fe9516)"><g clip-path="url(#efb5cbd91b)"><path fill="#ffffff" d="M 78.234375 113.828125 C 78.234375 113.828125 74.453125 116.976562 71.859375 117.308594 C 69.203125 117.644531 67.90625 116.703125 68.398438 116.539062 C 68.886719 116.378906 71.535156 116.578125 72.382812 115.164062 C 73.226562 113.75 70.148438 113.628906 71.421875 112.882812 C 72.695312 112.136719 74.769531 112.066406 76.175781 112.410156 C 77.582031 112.753906 78.234375 113.828125 78.234375 113.828125 Z M 78.234375 113.828125 " fill-opacity="1" fill-rule="nonzero"/></g></g></g><g clip-path="url(#356c57cc55)"><g clip-path="url(#05822b174e)"><g clip-path="url(#14b3b70f0d)"><path fill="#ffffff" d="M 78.351562 93.835938 C 78.351562 93.835938 80.664062 91.277344 81.660156 87.132812 C 82.660156 82.992188 83.855469 80.289062 84.84375 80.972656 C 85.832031 81.652344 86.414062 83.878906 84.304688 87.910156 C 82.191406 91.9375 78.351562 93.835938 78.351562 93.835938 Z M 78.351562 93.835938 " fill-opacity="1" fill-rule="nonzero"/></g></g></g><g clip-path="url(#84e20e9f51)"><g clip-path="url(#4cee2d5a2f)"><g clip-path="url(#8214918057)"><path fill="#ffffff" d="M 105.132812 76.828125 C 105.140625 76.914062 105.363281 79.179688 105.460938 80.660156 C 103.96875 85.582031 100.226562 89.566406 100.226562 89.566406 L 107.367188 95.179688 C 105.078125 96.824219 102.820312 98.707031 100.65625 100.777344 C 100.863281 99.839844 100.722656 98.75 99.816406 97.597656 C 97.117188 94.167969 94.777344 92.90625 94.777344 92.90625 C 94.777344 92.90625 93.753906 98.535156 91.136719 101.304688 C 88.535156 104.050781 81.640625 104.878906 81.535156 104.890625 C 81.585938 104.84375 84.320312 102.390625 85.421875 100.535156 C 86.535156 98.664062 86.535156 98.664062 86.535156 98.664062 C 83.910156 98.300781 81.464844 97.875 82.5 96.238281 C 82.5 96.238281 90.332031 95.476562 94.585938 86.445312 C 98.839844 77.417969 95.902344 74.691406 98.945312 74.675781 C 101.988281 74.660156 102.046875 82.085938 103.476562 80.785156 C 104.882812 79.507812 105.125 76.917969 105.132812 76.828125 Z M 105.132812 76.828125 " fill-opacity="1" fill-rule="nonzero"/></g></g></g><g clip-path="url(#e1d56d98b4)"><g clip-path="url(#a583793d97)"><g clip-path="url(#a3d4a783b4)"><path fill="#1b2123" d="M 71.753906 97.957031 C 71.753906 97.957031 75.941406 96.8125 78.960938 94.789062 C 81.980469 92.765625 82.871094 89.636719 82.871094 89.636719 C 82.871094 89.636719 80.421875 92.40625 78.351562 93.835938 C 76.28125 95.265625 75.789062 95.457031 75.789062 95.457031 Z M 71.753906 97.957031 " fill-opacity="1" fill-rule="nonzero"/></g></g></g><g clip-path="url(#42a99c717b)"><g clip-path="url(#6472c0d83d)"><g clip-path="url(#bcf779d8b4)"><path fill="#1b2123" d="M 97.792969 86.980469 C 98.039062 87.640625 100.207031 89.511719 101.886719 90.863281 L 101.785156 89.425781 C 100.542969 88.496094 99.492188 87.636719 98.605469 86.835938 Z M 97.792969 86.980469 " fill-opacity="1" fill-rule="nonzero"/></g></g></g><g clip-path="url(#b05ce0ca30)"><g clip-path="url(#af3fac263b)"><g clip-path="url(#465801e032)"><path fill="#1b2123" d="M 100.097656 78.035156 C 100.097656 78.035156 101.289062 82.375 96.375 88.652344 C 91.460938 94.929688 86.503906 96.925781 86.503906 96.925781 C 86.503906 96.925781 91.890625 95.847656 96.785156 90.390625 C 99.789062 86.894531 98.988281 87.816406 100.195312 84.988281 C 101.402344 82.15625 100.097656 78.035156 100.097656 78.035156 Z M 100.097656 78.035156 " fill-opacity="1" fill-rule="nonzero"/></g></g></g><g clip-path="url(#8e6a792f58)"><g clip-path="url(#5fa4d6fff1)"><g clip-path="url(#cd9df35150)"><path fill="#1b2123" d="M 89.582031 95.511719 C 89.164062 99.316406 85.753906 103.898438 81.394531 105.894531 C 81.394531 105.894531 83.335938 106.070312 86.847656 103.109375 C 90.359375 100.148438 91.417969 94.335938 91.417969 94.335938 Z M 89.582031 95.511719 " fill-opacity="1" fill-rule="nonzero"/></g></g></g><g clip-path="url(#ee3b43a71f)"><g clip-path="url(#20d2a669d1)"><g clip-path="url(#d78c05aae5)"><path fill="#1b2123" d="M 79.597656 114.691406 C 79.476562 114.394531 79.039062 113.449219 78.226562 112.894531 C 77.417969 112.335938 73.683594 112.871094 73.683594 112.871094 C 73.683594 112.871094 76.296875 113.171875 77.210938 113.582031 C 78.121094 113.996094 78.808594 115.234375 78.808594 115.234375 Z M 79.597656 114.691406 " fill-opacity="1" fill-rule="nonzero"/></g></g></g></svg>