<svg xmlns="http://www.w3.org/2000/svg" xmlns:xlink="http://www.w3.org/1999/xlink" width="500" zoomAndPan="magnify" viewBox="0 0 375 374.999991" height="500" preserveAspectRatio="xMidYMid meet" version="1.0"><defs><clipPath id="03f99b9e59"><path d="M 86.25 254.0625 L 289.6875 254.0625 L 289.6875 375 L 86.25 375 Z M 86.25 254.0625 " clip-rule="nonzero"/></clipPath><clipPath id="1471a36b01"><path d="M 375 187.5 C 375 83.945312 291.054688 0 187.5 0 C 83.945312 0 0 83.945312 0 187.5 C 0 291.054688 83.945312 375 187.5 375 C 291.054688 375 375 291.054688 375 187.5 Z M 375 187.5 " clip-rule="nonzero"/></clipPath><clipPath id="3bf1d2351f"><path d="M 167 216 L 209 216 L 209 259.6875 L 167 259.6875 Z M 167 216 " clip-rule="nonzero"/></clipPath><clipPath id="c8bb76d8e9"><path d="M 375 187.5 C 375 83.945312 291.054688 0 187.5 0 C 83.945312 0 0 83.945312 0 187.5 C 0 291.054688 83.945312 375 187.5 375 C 291.054688 375 375 291.054688 375 187.5 Z M 375 187.5 " clip-rule="nonzero"/></clipPath><clipPath id="232aa5cd9d"><path d="M 117 132.1875 L 149 132.1875 L 149 174 L 117 174 Z M 117 132.1875 " clip-rule="nonzero"/></clipPath><clipPath id="b3991556b3"><path d="M 375 187.5 C 375 83.945312 291.054688 0 187.5 0 C 83.945312 0 0 83.945312 0 187.5 C 0 291.054688 83.945312 375 187.5 375 C 291.054688 375 375 291.054688 375 187.5 Z M 375 187.5 " clip-rule="nonzero"/></clipPath><clipPath id="d61dfa37a0"><path d="M 228 132.1875 L 260 132.1875 L 260 174 L 228 174 Z M 228 132.1875 " clip-rule="nonzero"/></clipPath><clipPath id="20785e0225"><path d="M 375 187.5 C 375 83.945312 291.054688 0 187.5 0 C 83.945312 0 0 83.945312 0 187.5 C 0 291.054688 83.945312 375 187.5 375 C 291.054688 375 375 291.054688 375 187.5 Z M 375 187.5 " clip-rule="nonzero"/></clipPath><clipPath id="d51d825407"><path d="M 132.1875 75 L 243.75 75 L 243.75 235 L 132.1875 235 Z M 132.1875 75 " clip-rule="nonzero"/></clipPath><clipPath id="1dcd61699d"><path d="M 375 187.5 C 375 83.945312 291.054688 0 187.5 0 C 83.945312 0 0 83.945312 0 187.5 C 0 291.054688 83.945312 375 187.5 375 C 291.054688 375 375 291.054688 375 187.5 Z M 375 187.5 " clip-rule="nonzero"/></clipPath><clipPath id="cdfc910885"><path d="M 159 142 L 171 142 L 171 161 L 159 161 Z M 159 142 " clip-rule="nonzero"/></clipPath><clipPath id="24cc3e18e5"><path d="M 375 187.5 C 375 83.945312 291.054688 0 187.5 0 C 83.945312 0 0 83.945312 0 187.5 C 0 291.054688 83.945312 375 187.5 375 C 291.054688 375 375 291.054688 375 187.5 Z M 375 187.5 " clip-rule="nonzero"/></clipPath><clipPath id="697592d6c2"><path d="M 204.375 142 L 216.5625 142 L 216.5625 161 L 204.375 161 Z M 204.375 142 " clip-rule="nonzero"/></clipPath><clipPath id="96ec9bde5d"><path d="M 375 187.5 C 375 83.945312 291.054688 0 187.5 0 C 83.945312 0 0 83.945312 0 187.5 C 0 291.054688 83.945312 375 187.5 375 C 291.054688 375 375 291.054688 375 187.5 Z M 375 187.5 " clip-rule="nonzero"/></clipPath><clipPath id="5364827788"><path d="M 171 195 L 204.375 195 L 204.375 212.8125 L 171 212.8125 Z M 171 195 " clip-rule="nonzero"/></clipPath><clipPath id="6e0cbc2eb2"><path d="M 375 187.5 C 375 83.945312 291.054688 0 187.5 0 C 83.945312 0 0 83.945312 0 187.5 C 0 291.054688 83.945312 375 187.5 375 C 291.054688 375 375 291.054688 375 187.5 Z M 375 187.5 " clip-rule="nonzero"/></clipPath><clipPath id="7c8d6db9e0"><path d="M 142 246 L 233.4375 246 L 233.4375 286 L 142 286 Z M 142 246 " clip-rule="nonzero"/></clipPath><clipPath id="b50b4cb219"><path d="M 375 187.5 C 375 83.945312 291.054688 0 187.5 0 C 83.945312 0 0 83.945312 0 187.5 C 0 291.054688 83.945312 375 187.5 375 C 291.054688 375 375 291.054688 375 187.5 Z M 375 187.5 " clip-rule="nonzero"/></clipPath><clipPath id="3ac2124f5a"><path d="M 144.375 121 L 178 121 L 178 135.9375 L 144.375 135.9375 Z M 144.375 121 " clip-rule="nonzero"/></clipPath><clipPath id="82470c1ddb"><path d="M 375 187.5 C 375 83.945312 291.054688 0 187.5 0 C 83.945312 0 0 83.945312 0 187.5 C 0 291.054688 83.945312 375 187.5 375 C 291.054688 375 375 291.054688 375 187.5 Z M 375 187.5 " clip-rule="nonzero"/></clipPath><clipPath id="339cfc1fda"><path d="M 197 121 L 231.5625 121 L 231.5625 135.9375 L 197 135.9375 Z M 197 121 " clip-rule="nonzero"/></clipPath><clipPath id="87b42bd317"><path d="M 375 187.5 C 375 83.945312 291.054688 0 187.5 0 C 83.945312 0 0 83.945312 0 187.5 C 0 291.054688 83.945312 375 187.5 375 C 291.054688 375 375 291.054688 375 187.5 Z M 375 187.5 " clip-rule="nonzero"/></clipPath><clipPath id="9513f9915c"><path d="M 132.1875 156 L 243.75 156 L 243.75 246 L 132.1875 246 Z M 132.1875 156 " clip-rule="nonzero"/></clipPath><clipPath id="e5b5385d8c"><path d="M 375 187.5 C 375 83.945312 291.054688 0 187.5 0 C 83.945312 0 0 83.945312 0 187.5 C 0 291.054688 83.945312 375 187.5 375 C 291.054688 375 375 291.054688 375 187.5 Z M 375 187.5 " clip-rule="nonzero"/></clipPath><clipPath id="0d7c1d76d6"><path d="M 104.0625 52.5 L 257.8125 52.5 L 257.8125 120 L 104.0625 120 Z M 104.0625 52.5 " clip-rule="nonzero"/></clipPath><clipPath id="2d8db38cdf"><path d="M 375 187.5 C 375 83.945312 291.054688 0 187.5 0 C 83.945312 0 0 83.945312 0 187.5 C 0 291.054688 83.945312 375 187.5 375 C 291.054688 375 375 291.054688 375 187.5 Z M 375 187.5 " clip-rule="nonzero"/></clipPath></defs><rect x="-37.5" width="450" fill="#ffffff" y="-37.499999" height="449.999989" fill-opacity="1"/><rect x="-37.5" width="450" fill="#ffffff" y="-37.499999" height="449.999989" fill-opacity="1"/><path fill="#6be0fc" d="M 375 187.5 C 375 83.945312 291.054688 0 187.5 0 C 83.945312 0 0 83.945312 0 187.5 C 0 291.054688 83.945312 375 187.5 375 C 291.054688 375 375 291.054688 375 187.5 " fill-opacity="1" fill-rule="nonzero"/><g clip-path="url(#03f99b9e59)"><g clip-path="url(#1471a36b01)"><path fill="#e5685c" d="M 142.121094 257.042969 C 109.347656 273.835938 86.34375 308.234375 86.34375 347.597656 L 86.34375 412.910156 L 289.089844 412.910156 L 289.089844 347.597656 C 289.089844 307.886719 266.570312 273.675781 233.316406 257.042969 C 226.5 253.632812 207.164062 255.695312 187.800781 255.660156 C 168.433594 255.625 149.042969 253.496094 142.121094 257.042969 " fill-opacity="1" fill-rule="nonzero"/></g></g><g clip-path="url(#3bf1d2351f)"><g clip-path="url(#c8bb76d8e9)"><path fill="#eaaa94" d="M 208.425781 216.171875 L 167.015625 216.171875 L 167.015625 259.527344 L 208.425781 259.527344 L 208.425781 216.171875 " fill-opacity="1" fill-rule="nonzero"/></g></g><g clip-path="url(#232aa5cd9d)"><g clip-path="url(#b3991556b3)"><path fill="#eaaa94" d="M 117 153.277344 C 117 164.503906 126.105469 173.609375 137.328125 173.609375 L 148.492188 173.609375 L 148.492188 132.949219 L 137.328125 132.949219 C 126.105469 132.949219 117 142.050781 117 153.277344 " fill-opacity="1" fill-rule="nonzero"/></g></g><g clip-path="url(#d61dfa37a0)"><g clip-path="url(#20785e0225)"><path fill="#eaaa94" d="M 239.359375 132.949219 L 228.199219 132.949219 L 228.199219 173.609375 L 239.359375 173.609375 C 250.585938 173.609375 259.691406 164.503906 259.691406 153.277344 C 259.691406 142.050781 250.585938 132.949219 239.359375 132.949219 " fill-opacity="1" fill-rule="nonzero"/></g></g><g clip-path="url(#d51d825407)"><g clip-path="url(#1dcd61699d)"><path fill="#f2bda9" d="M 243.136719 75.203125 L 132.300781 75.203125 L 132.300781 179.226562 C 132.300781 209.835938 157.113281 234.644531 187.71875 234.644531 C 218.328125 234.644531 243.136719 209.835938 243.136719 179.226562 L 243.136719 75.203125 " fill-opacity="1" fill-rule="nonzero"/></g></g><g clip-path="url(#cdfc910885)"><g clip-path="url(#24cc3e18e5)"><path fill="#391514" d="M 170.824219 151.5 C 170.824219 158.386719 168.234375 160.691406 165.042969 160.691406 C 161.855469 160.691406 159.265625 158.386719 159.265625 151.5 C 159.265625 144.613281 161.855469 142.3125 165.042969 142.3125 C 168.234375 142.3125 170.824219 144.613281 170.824219 151.5 " fill-opacity="1" fill-rule="nonzero"/></g></g><g clip-path="url(#697592d6c2)"><g clip-path="url(#96ec9bde5d)"><path fill="#391514" d="M 216.171875 151.5 C 216.171875 158.386719 213.585938 160.691406 210.390625 160.691406 C 207.203125 160.691406 204.617188 158.386719 204.617188 151.5 C 204.617188 144.613281 207.203125 142.3125 210.390625 142.3125 C 213.585938 142.3125 216.171875 144.613281 216.171875 151.5 " fill-opacity="1" fill-rule="nonzero"/></g></g><g clip-path="url(#5364827788)"><g clip-path="url(#6e0cbc2eb2)"><path fill="#ffffff" d="M 171.070312 195.863281 C 171.070312 205.058594 178.523438 212.511719 187.71875 212.511719 C 196.910156 212.511719 204.363281 205.058594 204.363281 195.863281 L 171.070312 195.863281 " fill-opacity="1" fill-rule="nonzero"/></g></g><g clip-path="url(#7c8d6db9e0)"><g clip-path="url(#b50b4cb219)"><path fill="#eaaa94" d="M 187.71875 285.953125 C 207.867188 285.953125 225.246094 274.128906 233.316406 257.042969 C 219.609375 250.125 204.121094 246.226562 187.71875 246.226562 C 171.316406 246.226562 155.828125 250.125 142.121094 257.042969 C 150.191406 274.128906 167.570312 285.953125 187.71875 285.953125 " fill-opacity="1" fill-rule="nonzero"/></g></g><g clip-path="url(#3ac2124f5a)"><g clip-path="url(#82470c1ddb)"><path fill="#432f2c" d="M 171.179688 135.261719 L 151.242188 135.261719 C 147.480469 135.261719 144.433594 132.214844 144.433594 128.460938 C 144.433594 124.699219 147.480469 121.652344 151.242188 121.652344 L 171.179688 121.652344 C 174.9375 121.652344 177.984375 124.699219 177.984375 128.460938 C 177.984375 132.214844 174.9375 135.261719 171.179688 135.261719 " fill-opacity="1" fill-rule="nonzero"/></g></g><g clip-path="url(#339cfc1fda)"><g clip-path="url(#87b42bd317)"><path fill="#432f2c" d="M 224.199219 135.261719 L 204.257812 135.261719 C 200.496094 135.261719 197.449219 132.214844 197.449219 128.460938 C 197.449219 124.699219 200.496094 121.652344 204.257812 121.652344 L 224.199219 121.652344 C 227.957031 121.652344 231.003906 124.699219 231.003906 128.460938 C 231.003906 132.214844 227.957031 135.261719 224.199219 135.261719 " fill-opacity="1" fill-rule="nonzero"/></g></g><g clip-path="url(#9513f9915c)"><g clip-path="url(#e5b5385d8c)"><path fill="#432f2c" d="M 165.265625 198.03125 C 168.628906 192.132812 175.207031 187.847656 187.71875 187.847656 C 200.234375 187.847656 206.804688 192.132812 210.167969 198.03125 C 210.167969 223.074219 165.265625 220.773438 165.265625 198.03125 Z M 243.136719 156.355469 C 232.3125 169.496094 223.839844 180.503906 216.949219 189.375 C 209.988281 180.980469 199.480469 177.933594 187.71875 177.933594 C 175.957031 177.933594 165.449219 180.980469 158.484375 189.375 C 151.597656 180.503906 143.121094 169.496094 132.300781 156.355469 L 132.300781 190.226562 C 132.300781 220.835938 157.113281 245.648438 187.71875 245.648438 C 218.328125 245.648438 243.136719 220.835938 243.136719 190.226562 L 243.136719 156.355469 " fill-opacity="1" fill-rule="nonzero"/></g></g><g clip-path="url(#0d7c1d76d6)"><g clip-path="url(#2d8db38cdf)"><path fill="#432f2c" d="M 231.886719 68.179688 C 228.464844 68.179688 225.203125 68.859375 222.214844 70.078125 C 217.347656 59.941406 206.980469 52.941406 194.980469 52.941406 L 134.878906 52.941406 C 118.203125 52.941406 104.679688 66.464844 104.679688 83.140625 C 104.679688 99.816406 118.203125 113.335938 134.878906 113.335938 L 194.980469 113.335938 C 200.90625 113.335938 206.425781 111.625 211.085938 108.675781 C 215.730469 115.152344 223.316406 119.371094 231.886719 119.371094 C 246.023438 119.371094 257.484375 107.910156 257.484375 93.777344 C 257.484375 79.640625 246.023438 68.179688 231.886719 68.179688 " fill-opacity="1" fill-rule="nonzero"/></g></g></svg>